<?xml version="1.0" standalone="no"?><!DOCTYPE svg PUBLIC "-//W3C//DTD SVG 1.1//EN" "http://www.w3.org/Graphics/SVG/1.1/DTD/svg11.dtd"><svg class="icon" width="200px" height="200.00px" viewBox="0 0 1024 1024" version="1.1" xmlns="http://www.w3.org/2000/svg"><path d="M243.2 42.666667h537.6c110.933333 0 200.533333 89.6 200.533333 200.533333v537.6c0 110.933333-89.6 200.533333-200.533333 200.533333H243.2C132.266667 981.333333 42.666667 891.733333 42.666667 780.8V243.2C42.666667 132.266667 132.266667 42.666667 243.2 42.666667z" fill="#FFDA9F" /><path d="M785.066667 322.133333H238.933333c-8.533333 0-17.066667-6.4-17.066666-17.066666s6.4-17.066667 17.066666-17.066667h546.133334c8.533333 0 17.066667 6.4 17.066666 17.066667s-8.533333 17.066667-17.066666 17.066666z" fill="#7F7F7F" /><path d="M296.533333 360.533333h433.066667v270.933334H296.533333z" fill="#FFFFFF" /><path d="M729.6 646.4H296.533333c-8.533333 0-17.066667-6.4-17.066666-17.066667V360.533333c0-8.533333 6.4-17.066667 17.066666-17.066666h433.066667c8.533333 0 17.066667 6.4 17.066667 17.066666v270.933334c0 8.533333-8.533333 14.933333-17.066667 14.933333z m-418.133333-32h401.066666V375.466667H311.466667v238.933333z" fill="#7F7F7F" /><path d="M441.6 494.933333m-110.933333 0a110.933333 110.933333 0 1 0 221.866666 0 110.933333 110.933333 0 1 0-221.866666 0Z" fill="#FFFFFF" /><path d="M443.733333 716.8l70.4-17.066667 68.266667 17.066667" fill="#FFFFFF" /><path d="M582.4 731.733333h-4.266667l-64-17.066666-66.133333 17.066666c-8.533333 2.133333-17.066667-4.266667-19.2-12.8-2.133333-8.533333 2.133333-17.066667 12.8-19.2L512 682.666667h8.533333l68.266667 17.066666c8.533333 2.133333 12.8 10.666667 10.666667 19.2-4.266667 8.533333-10.666667 12.8-17.066667 12.8z" fill="#7F7F7F" /><path d="M512 714.666667c-8.533333 0-17.066667-6.4-17.066667-17.066667v-51.2c0-8.533333 6.4-17.066667 17.066667-17.066667s17.066667 6.4 17.066667 17.066667v51.2c0 10.666667-8.533333 17.066667-17.066667 17.066667z" fill="#7F7F7F" /><path d="M682.666667 460.8l-64 74.666667-36.266667-34.133334-36.266667 38.4" fill="#FFFFFF" /><path d="M546.133333 554.666667c-4.266667 0-8.533333-2.133333-10.666666-4.266667-6.4-6.4-6.4-17.066667 0-23.466667l36.266666-38.4c6.4-6.4 17.066667-6.4 23.466667 0L618.666667 512l53.333333-61.866667c6.4-6.4 14.933333-6.4 23.466667-2.133333 6.4 6.4 8.533333 14.933333 2.133333 23.466667l-64 74.666666c-2.133333 4.266667-6.4 6.4-10.666667 6.4s-8.533333-2.133333-12.8-4.266666l-25.6-23.466667-25.6 27.733333c-4.266667 2.133333-8.533333 2.133333-12.8 2.133334z" fill="#8C99F9" /><path d="M422.4 550.4c-4.266667 0-8.533333-2.133333-10.666667-4.266667l-51.2-51.2c-6.4-6.4-6.4-17.066667 0-23.466666s17.066667-6.4 23.466667 0l40.533333 40.533333 78.933334-78.933333c6.4-6.4 17.066667-6.4 23.466666 0s6.4 17.066667 0 23.466666l-89.6 89.6c-6.4 4.266667-10.666667 4.266667-14.933333 4.266667z" fill="#7F7F7F" /></svg>