<?xml version="1.0" standalone="no"?><!DOCTYPE svg PUBLIC "-//W3C//DTD SVG 1.1//EN" "http://www.w3.org/Graphics/SVG/1.1/DTD/svg11.dtd"><svg class="icon" width="200px" height="200.00px" viewBox="0 0 1024 1024" version="1.1" xmlns="http://www.w3.org/2000/svg"><path d="M243.2 42.666667h539.733333c110.933333 0 200.533333 89.6 200.533334 200.533333v539.733333c0 110.933333-89.6 200.533333-200.533334 200.533334H243.2C132.266667 981.333333 42.666667 891.733333 42.666667 780.8V243.2C42.666667 132.266667 132.266667 42.666667 243.2 42.666667z" fill="#FFEF7B" /><path d="M488.533333 360.533333m-157.866666 0a157.866667 157.866667 0 1 0 315.733333 0 157.866667 157.866667 0 1 0-315.733333 0Z" fill="#FFFFFF" /><path d="M488.533333 533.333333c-96 0-172.8-78.933333-172.8-172.8s78.933333-172.8 172.8-172.8 172.8 78.933333 172.8 172.8-76.8 172.8-172.8 172.8z m0-313.6c-78.933333 0-140.8 64-140.8 140.8s64 140.8 140.8 140.8c78.933333 0 140.8-64 140.8-140.8s-61.866667-140.8-140.8-140.8z" fill="#7F7F7F" /><path d="M580.266667 260.266667l-57.6 100.266666h40.533333v29.866667H512v23.466667h51.2v29.866666H512v42.666667h-46.933333v-42.666667h-53.333334v-29.866666h53.333334v-23.466667h-53.333334v-29.866667h42.666667l-57.6-100.266666H448c23.466667 46.933333 36.266667 76.8 42.666667 91.733333 0-2.133333 2.133333-4.266667 2.133333-8.533333 2.133333-4.266667 8.533333-21.333333 21.333333-44.8l19.2-38.4h46.933334z" fill="#7F7F7F" /><path d="M145.066667 774.4c-8.533333 0-17.066667-6.4-17.066667-14.933333v-185.6c0-8.533333 6.4-17.066667 17.066667-17.066667s17.066667 6.4 17.066666 17.066667v185.6c-2.133333 8.533333-8.533333 14.933333-17.066666 14.933333z" fill="#7F7F7F" /><path d="M590.933333 718.933333l187.733334-70.4c38.4-14.933333 81.066667 4.266667 96 42.666667l6.4 14.933333L597.333333 806.4c-51.2 19.2-106.666667 19.2-160 2.133333l-204.8-70.4v-166.4l40.533334-12.8c44.8-14.933333 91.733333-10.666667 136.533333 6.4L640 665.6l-42.666667 44.8c-17.066667 17.066667-40.533333 23.466667-61.866666 14.933333l-104.533334-38.4" fill="#FFE6CA" /><path d="M516.266667 836.266667c-27.733333 0-55.466667-4.266667-83.2-12.8l-204.8-70.4c-6.4-2.133333-10.666667-8.533333-10.666667-14.933334v-166.4c0-6.4 4.266667-12.8 10.666667-14.933333l40.533333-12.8c44.8-14.933333 96-12.8 147.2 6.4l230.4 100.266667c4.266667 2.133333 8.533333 6.4 8.533333 10.666666s0 10.666667-4.266666 14.933334l-4.266667 4.266666 125.866667-46.933333c21.333333-8.533333 46.933333-8.533333 68.266666 2.133333s38.4 27.733333 46.933334 51.2l6.4 14.933334c2.133333 4.266667 2.133333 8.533333 0 12.8-2.133333 4.266667-4.266667 6.4-8.533334 8.533333l-283.733333 100.266667c-27.733333 8.533333-55.466667 12.8-85.333333 12.8z m-268.8-108.8l194.133333 66.133333c51.2 17.066667 102.4 14.933333 149.333333-2.133333l268.8-93.866667c-6.4-14.933333-17.066667-25.6-29.866666-32-14.933333-6.4-29.866667-6.4-44.8 0L597.333333 733.866667h-4.266666c-19.2 10.666667-42.666667 12.8-61.866667 4.266666L426.666667 699.733333c-8.533333-2.133333-12.8-12.8-8.533334-21.333333 2.133333-8.533333 12.8-12.8 21.333334-8.533333l104.533333 38.4c14.933333 6.4 32 2.133333 44.8-10.666667l25.6-27.733333-209.066667-91.733334c-44.8-17.066667-85.333333-19.2-125.866666-6.4l-29.866667 8.533334v147.2z" fill="#7F7F7F" /><path d="M804.266667 448c-4.266667 0-6.4 0-10.666667-4.266667l-96-72.533333c-4.266667-2.133333-6.4-8.533333-6.4-12.8s2.133333-10.666667 6.4-12.8l96-74.666667c6.4-6.4 17.066667-4.266667 23.466667 2.133334 6.4 6.4 4.266667 17.066667-2.133334 23.466666l-78.933333 61.866667 78.933333 59.733333c6.4 6.4 8.533333 14.933333 2.133334 23.466667-2.133333 4.266667-8.533333 6.4-12.8 6.4z" fill="#7F7F7F" /></svg>