<?xml version="1.0" standalone="no"?><!DOCTYPE svg PUBLIC "-//W3C//DTD SVG 1.1//EN" "http://www.w3.org/Graphics/SVG/1.1/DTD/svg11.dtd"><svg class="icon" width="200px" height="200.00px" viewBox="0 0 1024 1024" version="1.1" xmlns="http://www.w3.org/2000/svg"><path d="M243.2 42.666667h537.6c110.933333 0 200.533333 89.6 200.533333 200.533333v537.6c0 110.933333-89.6 200.533333-200.533333 200.533333H243.2C132.266667 981.333333 42.666667 891.733333 42.666667 780.8V243.2C42.666667 132.266667 132.266667 42.666667 243.2 42.666667z" fill="#E4D1E5" /><path d="M753.066667 488.533333v275.2c-2.133333 23.466667-21.333333 40.533333-44.8 38.4H315.733333c-23.466667 2.133333-42.666667-14.933333-44.8-38.4V488.533333" fill="#FFF0CC" /><path d="M311.466667 819.2c-12.8 0-25.6-4.266667-36.266667-12.8-10.666667-10.666667-19.2-23.466667-19.2-38.4V490.666667c0-8.533333 6.4-17.066667 17.066667-17.066667s17.066667 6.4 17.066666 17.066667v275.2c0 6.4 4.266667 12.8 8.533334 17.066666 4.266667 2.133333 10.666667 6.4 19.2 6.4h394.666666c10.666667 0 17.066667-2.133333 19.2-6.4 4.266667-4.266667 8.533333-10.666667 8.533334-19.2V490.666667c0-8.533333 6.4-17.066667 17.066666-17.066667s17.066667 6.4 17.066667 17.066667v275.2c-2.133333 17.066667-8.533333 32-19.2 40.533333-10.666667 10.666667-27.733333 14.933333-42.666667 12.8H311.466667z" fill="#7F7F7F" /><path d="M512 588.8L475.733333 554.666667c-21.333333-19.2-55.466667-17.066667-74.666666 4.266666-19.2 21.333333-17.066667 53.333333 4.266666 72.533334l108.8 102.4 104.533334-100.266667c21.333333-19.2 21.333333-53.333333 2.133333-74.666667l-2.133333-2.133333c-21.333333-21.333333-53.333333-21.333333-74.666667 0L512 588.8z" fill="#FF9052" /><path d="M514.133333 750.933333c-4.266667 0-8.533333-2.133333-10.666666-4.266666l-108.8-102.4c-12.8-12.8-21.333333-27.733333-21.333334-46.933334-2.133333-17.066667 4.266667-36.266667 17.066667-49.066666 12.8-12.8 29.866667-21.333333 46.933333-23.466667 19.2-2.133333 36.266667 4.266667 49.066667 17.066667l25.6 23.466666 21.333333-21.333333c27.733333-27.733333 70.4-27.733333 98.133334 0l2.133333 2.133333c12.8 14.933333 19.2 32 19.2 49.066667 0 19.2-8.533333 36.266667-21.333333 49.066667l-104.533334 100.266666c-4.266667 4.266667-8.533333 6.4-12.8 6.4z m-72.533333-194.133333c-10.666667 0-21.333333 4.266667-27.733333 12.8-6.4 6.4-8.533333 17.066667-8.533334 25.6 0 8.533333 4.266667 17.066667 12.8 25.6l98.133334 91.733333 93.866666-89.6c14.933333-12.8 14.933333-36.266667 2.133334-53.333333l-2.133334-2.133333c-14.933333-14.933333-36.266667-14.933333-51.2 0l-32 32c-6.4 6.4-14.933333 6.4-21.333333 0L469.333333 565.333333c-10.666667-4.266667-19.2-8.533333-27.733333-8.533333z" fill="#7F7F7F" /><path d="M196.266667 409.6L512 221.866667l315.733333 187.733333" fill="#FFFFFF" /><path d="M827.733333 426.666667c-2.133333 0-6.4 0-8.533333-2.133334L512 241.066667 204.8 422.4c-8.533333 4.266667-17.066667 2.133333-21.333333-6.4-4.266667-8.533333-2.133333-17.066667 6.4-21.333333l315.733333-187.733334c4.266667-2.133333 10.666667-2.133333 17.066667 0l315.733333 187.733334c8.533333 4.266667 10.666667 14.933333 6.4 21.333333-6.4 6.4-10.666667 10.666667-17.066667 10.666667z" fill="#7F7F7F" /></svg>