<?xml version="1.0" standalone="no"?><!DOCTYPE svg PUBLIC "-//W3C//DTD SVG 1.1//EN" "http://www.w3.org/Graphics/SVG/1.1/DTD/svg11.dtd"><svg class="icon" width="200px" height="200.00px" viewBox="0 0 1024 1024" version="1.1" xmlns="http://www.w3.org/2000/svg"><path d="M243.2 42.666667h537.6c110.933333 0 200.533333 89.6 200.533333 200.533333v537.6c0 110.933333-89.6 200.533333-200.533333 200.533333H243.2C132.266667 981.333333 42.666667 891.733333 42.666667 780.8V243.2C42.666667 132.266667 132.266667 42.666667 243.2 42.666667z" fill="#B5EAE8" /><path d="M512 640m-157.866667 0a157.866667 157.866667 0 1 0 315.733334 0 157.866667 157.866667 0 1 0-315.733334 0Z" fill="#FFFFFF" /><path d="M512 814.933333c-96 0-172.8-78.933333-172.8-174.933333s78.933333-172.8 172.8-172.8c96 0 174.933333 78.933333 174.933333 172.8s-78.933333 174.933333-174.933333 174.933333z m0-315.733333c-78.933333 0-140.8 64-140.8 140.8s64 142.933333 140.8 142.933333 142.933333-64 142.933333-142.933333-64-140.8-142.933333-140.8z" fill="#7F7F7F" /><path d="M605.866667 533.333333l-59.733334 100.266667h40.533334v29.866667h-51.2v23.466666h51.2v29.866667h-51.2v42.666667h-46.933334v-42.666667h-53.333333v-29.866667h53.333333v-23.466666h-53.333333v-29.866667h42.666667L422.4 533.333333h49.066667c21.333333 46.933333 36.266667 76.8 40.533333 91.733334 0-2.133333 2.133333-4.266667 2.133333-8.533334 2.133333-4.266667 8.533333-19.2 21.333334-44.8L554.666667 533.333333h51.2z" fill="#7F7F7F" /><path d="M881.066667 450.133333c-8.533333 0-17.066667-6.4-17.066667-17.066666v-187.733334c0-8.533333 6.4-17.066667 17.066667-17.066666s17.066667 6.4 17.066666 17.066666v187.733334c-2.133333 10.666667-8.533333 17.066667-17.066666 17.066666z" fill="#7F7F7F" /><path d="M433.066667 290.133333L236.8 362.666667c-32 12.8-70.4-4.266667-83.2-36.266667v-2.133333l-8.533333-23.466667 277.333333-100.266667c55.466667-19.2 115.2-21.333333 170.666667-2.133333l200.533333 68.266667v168.533333l-32 10.666667c-49.066667 14.933333-102.4 12.8-151.466667-6.4L384 341.333333l42.666667-44.8c17.066667-17.066667 40.533333-23.466667 64-14.933333l104.533333 36.266667" fill="#FFE6CA" /><path d="M695.466667 471.466667c-29.866667 0-61.866667-6.4-91.733334-17.066667l-226.133333-98.133333c-4.266667-2.133333-8.533333-6.4-8.533333-10.666667s0-10.666667 4.266666-14.933333v-2.133334l-130.133333 49.066667c-19.2 8.533333-40.533333 6.4-59.733333-2.133333-19.2-8.533333-34.133333-23.466667-42.666667-42.666667 0-2.133333 0-4.266667-2.133333-4.266667l-8.533334-21.333333c-2.133333-4.266667-2.133333-8.533333 0-12.8 2.133333-4.266667 4.266667-6.4 8.533334-8.533333l277.333333-100.266667c61.866667-21.333333 123.733333-21.333333 181.333333-2.133333l200.533334 68.266666c6.4 2.133333 10.666667 8.533333 10.666666 14.933334v168.533333c0 6.4-4.266667 12.8-10.666666 14.933333l-32 10.666667c-21.333333 6.4-46.933333 10.666667-70.4 10.666667z m-283.733334-136.533334l204.8 89.6c44.8 17.066667 93.866667 19.2 140.8 6.4l21.333334-6.4V277.333333l-189.866667-64c-51.2-17.066667-106.666667-17.066667-160 2.133334L166.4 309.333333l2.133333 8.533334v4.266666c4.266667 10.666667 12.8 19.2 25.6 23.466667 12.8 4.266667 25.6 6.4 36.266667 2.133333l196.266667-72.533333c21.333333-12.8 44.8-17.066667 68.266666-8.533333l104.533334 36.266666c8.533333 2.133333 12.8 12.8 10.666666 21.333334-2.133333 8.533333-12.8 12.8-21.333333 10.666666L484.266667 298.666667c-17.066667-6.4-34.133333-2.133333-46.933334 10.666666l-25.6 25.6z" fill="#7F7F7F" /><path d="M317.866667 761.6c-4.266667 0-6.4-2.133333-10.666667-4.266667l-104.533333-81.066666c-4.266667-2.133333-6.4-8.533333-6.4-12.8s2.133333-8.533333 6.4-12.8l106.666666-89.6c6.4-6.4 17.066667-4.266667 23.466667 2.133333 6.4 6.4 4.266667 17.066667-2.133333 23.466667l-91.733334 76.8 89.6 68.266666c6.4 6.4 8.533333 14.933333 2.133334 23.466667-4.266667 4.266667-8.533333 6.4-12.8 6.4z" fill="#7F7F7F" /></svg>